<svg width="24" height="24" viewBox="0 0 24 24" fill="none" xmlns="http://www.w3.org/2000/svg">
<path d="M16.1171 7.97714C16.5231 7.97714 16.8518 7.6485 16.8518 7.24247V0.734672C16.8518 0.329156 16.5231 0 16.1171 0H4.0958C3.69043 0 3.36108 0.329344 3.36108 0.734672V18.8969C3.36108 19.1428 3.48404 19.372 3.68827 19.5082L10.246 23.8761C10.729 24.1993 11.3882 23.8533 11.3882 23.2648V19.6316H16.1171C16.5231 19.6316 16.8518 19.3024 16.8518 18.8969V12.3892C16.8518 11.9831 16.5231 11.6545 16.1171 11.6545C15.7115 11.6545 15.3824 11.9831 15.3824 12.3892V18.1623H11.3882V5.10258C11.3882 4.85672 11.2652 4.6275 11.0605 4.49133L6.52416 1.46934H15.3824V7.24247C15.3824 7.6485 15.7116 7.97714 16.1171 7.97714Z" fill="currentColor"/>
<path d="M20.4219 9.29617L18.6508 7.44231C18.3702 7.14892 17.9054 7.13814 17.612 7.41878C17.3186 7.69895 17.3078 8.16376 17.5885 8.4571L18.1845 9.0811H14.0023C13.5962 9.0811 13.2676 9.41026 13.2676 9.81578C13.2676 10.2213 13.5962 10.5504 14.0023 10.5504H18.1845L17.5885 11.1744C17.3078 11.4678 17.3186 11.9327 17.612 12.2128C17.9063 12.494 18.3703 12.4822 18.6508 12.1892L20.4219 10.3354C20.7132 10.032 20.7093 9.59551 20.4219 9.29617Z" fill="currentColor"/>
</svg>
