<svg width="24" height="24" viewBox="0 0 24 24" fill="none" xmlns="http://www.w3.org/2000/svg">
<g clip-path="url(#clip0_209_211)">
<path d="M23.1111 12C23.1111 18.136 18.136 23.1111 12 23.1111C5.86314 23.1111 0.888916 18.136 0.888916 12C0.888916 5.86314 5.86314 0.888916 12 0.888916C14.6845 0.888916 17.1476 1.8418 19.0676 3.42669" stroke="currentColor" stroke-width="2" stroke-miterlimit="10" stroke-linecap="round"/>
<path d="M16.5627 3.8595H19.2294" stroke="currentColor" stroke-width="2" stroke-miterlimit="10" stroke-linecap="round"/>
<path d="M19.2295 3.85954V1.19287" stroke="currentColor" stroke-width="2" stroke-miterlimit="10" stroke-linecap="round"/>
<path d="M12.1181 17.1138C11.5875 17.1138 11.1021 17.0427 10.6639 16.9023C10.2257 16.76 9.84967 16.5583 9.5359 16.296C9.22301 16.0356 8.98034 15.7218 8.8079 15.3512C8.63456 14.9814 8.54834 14.568 8.54834 14.1129C8.54834 13.5049 8.69767 12.9929 8.99634 12.5743C9.29501 12.1538 9.75901 11.8427 10.3892 11.6383C9.8879 11.4303 9.5119 11.1343 9.26212 10.7494C9.01323 10.3654 8.88878 9.90405 8.88878 9.36271C8.88878 8.97338 8.9679 8.6116 9.12701 8.27471C9.28612 7.93783 9.50834 7.64538 9.7919 7.39649C10.0763 7.1476 10.4168 6.95294 10.8123 6.81338C11.2079 6.67383 11.6435 6.60449 12.1172 6.60449C12.591 6.60449 13.0266 6.67383 13.423 6.81338C13.8195 6.95294 14.1572 7.1476 14.4417 7.39649C14.7261 7.64538 14.9483 7.93783 15.1066 8.27471C15.2666 8.6116 15.3466 8.97338 15.3466 9.36271C15.3466 9.90316 15.2195 10.3654 14.9679 10.7494C14.7181 11.1343 14.343 11.4303 13.8443 11.6383C14.4746 11.8418 14.9395 12.1538 15.2381 12.5743C15.5368 12.9938 15.6861 13.5058 15.6861 14.1129C15.6861 14.568 15.599 14.9814 15.4275 15.3512C15.2541 15.7209 15.0106 16.0356 14.6986 16.296C14.3857 16.5583 14.0097 16.7592 13.5715 16.9023C13.1341 17.0427 12.6497 17.1138 12.1181 17.1138ZM12.1181 15.7423C12.407 15.7423 12.6612 15.7005 12.8781 15.6169C13.0968 15.5334 13.2808 15.4187 13.4301 15.2729C13.5795 15.1254 13.6906 14.9503 13.767 14.7449C13.8435 14.5414 13.8817 14.3209 13.8817 14.0854C13.8817 13.5209 13.7252 13.0943 13.4115 12.8045C13.0986 12.5165 12.6683 12.3716 12.1181 12.3716C11.5688 12.3716 11.1368 12.5165 10.8239 12.8045C10.511 13.0943 10.3546 13.5218 10.3546 14.0854C10.3546 14.3218 10.3928 14.5423 10.4692 14.7449C10.5448 14.9494 10.6577 15.1254 10.807 15.2729C10.9563 15.4187 11.1395 15.5334 11.3581 15.6169C11.5759 15.7014 11.8292 15.7423 12.1181 15.7423ZM12.1181 10.9929C12.4026 10.9929 12.6426 10.9476 12.8372 10.8578C13.0319 10.768 13.1883 10.6489 13.3057 10.4996C13.423 10.3503 13.5092 10.1796 13.5572 9.9876C13.6079 9.7956 13.6319 9.59827 13.6319 9.39383C13.6319 9.19916 13.6026 9.01427 13.5395 8.83916C13.479 8.66405 13.3848 8.50849 13.2612 8.37338C13.1377 8.23916 12.9821 8.13071 12.7928 8.05071C12.6035 7.96983 12.3786 7.92894 12.1172 7.92894C11.8568 7.92894 11.631 7.96983 11.4417 8.05071C11.2515 8.13071 11.0941 8.23916 10.9688 8.37338C10.8443 8.5076 10.7519 8.66316 10.6932 8.83827C10.6337 9.01338 10.6035 9.19827 10.6035 9.39294C10.6035 9.59649 10.6283 9.79471 10.6781 9.98671C10.7288 10.1787 10.8115 10.3494 10.9306 10.4987C11.0488 10.648 11.2061 10.768 11.3999 10.8569C11.5946 10.9476 11.8346 10.9929 12.1181 10.9929Z" fill="currentColor"/>
</g>
<defs>
<clipPath id="clip0_209_211">
<rect width="24" height="24" fill="white"/>
</clipPath>
</defs>
</svg>
