<svg width="24" height="24" viewBox="0 0 24 24" fill="none" xmlns="http://www.w3.org/2000/svg">
<path fill-rule="evenodd" clip-rule="evenodd" d="M1.59998 2.4C1.59998 1.76348 1.85283 1.15303 2.30292 0.702944C2.75301 0.252856 3.36346 0 3.99998 0L17.1312 0L22.4 5.2688V21.6C22.4 22.2365 22.1471 22.847 21.697 23.2971C21.2469 23.7471 20.6365 24 20 24H3.99998C3.36346 24 2.75301 23.7471 2.30292 23.2971C1.85283 22.847 1.59998 22.2365 1.59998 21.6V2.4ZM6.39998 6.3952H17.6V7.9952H6.39998V6.3952ZM17.6 11.192H6.39998V12.792H17.6V11.192ZM17.6 16H6.39998V17.6H17.6V16Z" fill="currentColor"/>
</svg>
