<svg width="24" height="19" viewBox="0 0 24 19" fill="none" xmlns="http://www.w3.org/2000/svg">
<g clip-path="url(#clip0_206_219)">
<path d="M20.3077 11.1538V18.0768C20.3077 18.3268 20.2164 18.5432 20.0337 18.7259C19.851 18.9086 19.6346 18.9999 19.3846 18.9999H13.8462V13.4615H10.1539V18.9999H4.6154C4.3654 18.9999 4.14905 18.9086 3.96636 18.7259C3.78367 18.5432 3.69232 18.3268 3.69232 18.0768V11.1538C3.69232 11.1442 3.69473 11.1297 3.69953 11.1105C3.70434 11.0913 3.70675 11.0768 3.70675 11.0672L12 4.23069L20.2933 11.0672C20.3029 11.0865 20.3077 11.1153 20.3077 11.1538ZM23.5241 10.1586L22.6298 11.2259C22.5529 11.3124 22.4519 11.3653 22.3269 11.3845H22.2837C22.1587 11.3845 22.0577 11.3509 21.9808 11.2836L12 2.96146L2.01925 11.2836C1.90386 11.3605 1.78848 11.3942 1.67309 11.3845C1.54809 11.3653 1.44713 11.3124 1.37021 11.2259L0.475977 10.1586C0.399054 10.0624 0.3654 9.94944 0.375016 9.81964C0.384631 9.68983 0.437516 9.58646 0.533669 9.50954L10.9039 0.870117C11.2116 0.620117 11.5769 0.495117 12 0.495117C12.4231 0.495117 12.7885 0.620117 13.0962 0.870117L16.6154 3.81242V0.999925C16.6154 0.865309 16.6587 0.754733 16.7452 0.668194C16.8317 0.581656 16.9423 0.538386 17.0769 0.538386H19.8462C19.9808 0.538386 20.0914 0.581656 20.1779 0.668194C20.2644 0.754733 20.3077 0.865309 20.3077 0.999925V6.88454L23.4664 9.50954C23.5625 9.58646 23.6154 9.68983 23.625 9.81964C23.6346 9.94944 23.601 10.0624 23.5241 10.1586Z" fill="currentColor"/>
</g>
<defs>
<clipPath id="clip0_206_219">
<rect width="24" height="18.9231" fill="white" transform="translate(0 0.0769043)"/>
</clipPath>
</defs>
</svg>
