<svg width="24" height="24" viewBox="0 0 24 24" fill="none" xmlns="http://www.w3.org/2000/svg">
<g clip-path="url(#clip0_206_219)">
<path d="M20.3077 14.0488V22.8293C20.3077 23.1464 20.2164 23.4208 20.0337 23.6525C19.851 23.8842 19.6346 24 19.3846 24H13.8462V16.9756H10.1539V24H4.6154C4.3654 24 4.14905 23.8842 3.96636 23.6525C3.78367 23.4208 3.69232 23.1464 3.69232 22.8293V14.0488C3.69232 14.0366 3.69473 14.0183 3.69953 13.9939C3.70434 13.9695 3.70675 13.9512 3.70675 13.9391L12 5.26832L20.2933 13.9391C20.3029 13.9634 20.3077 14 20.3077 14.0488ZM23.5241 12.7866L22.6298 14.1403C22.5529 14.25 22.4519 14.3171 22.3269 14.3415H22.2837C22.1587 14.3415 22.0577 14.2988 21.9808 14.2134L12 3.65857L2.01925 14.2134C1.90386 14.311 1.78848 14.3537 1.67309 14.3415C1.54809 14.3171 1.44713 14.25 1.37021 14.1403L0.475977 12.7866C0.399054 12.6647 0.3654 12.5214 0.375016 12.3567C0.384631 12.1921 0.437516 12.061 0.533669 11.9634L10.9039 1.00613C11.2116 0.689054 11.5769 0.530518 12 0.530518C12.4231 0.530518 12.7885 0.689054 13.0962 1.00613L16.6154 4.73783V1.17076C16.6154 1.00003 16.6587 0.859786 16.7452 0.75003C16.8317 0.640274 16.9423 0.585396 17.0769 0.585396H19.8462C19.9808 0.585396 20.0914 0.640274 20.1779 0.75003C20.2644 0.859786 20.3077 1.00003 20.3077 1.17076V8.63418L23.4664 11.9634C23.5625 12.061 23.6154 12.1921 23.625 12.3567C23.6346 12.5214 23.601 12.6647 23.5241 12.7866Z" fill="currentColor"/>
</g>
<defs>
<clipPath id="clip0_206_219">
<rect width="24" height="24" fill="white"/>
</clipPath>
</defs>
</svg>
